<?xml version="1.0" encoding="UTF-8"?><svg id="Livello_1" xmlns="http://www.w3.org/2000/svg" viewBox="0 0 481.94 133.89"><defs><style>.cls-1{fill:#fca863;}.cls-2{fill:#fe8267;font-family:Uto-Bold, Uto;font-size:149.64px;font-weight:700;}.cls-3{fill:#fcab63;}</style></defs><text class="cls-2" transform="translate(128.04 119.06)"><tspan x="0" y="0">Do!t</tspan></text><polygon class="cls-1" points="114.46 48.25 75.58 24.57 90.95 18.99 114.46 48.25"/><polygon class="cls-1" points="76.32 113.77 59.98 112.42 125.64 74.51 122.58 88.95 76.32 113.77"/><polygon class="cls-1" points="116.55 52.59 123.71 67.35 57.67 30.1 71.65 25.4 116.55 52.59"/><polygon class="cls-1" points="80.48 114.97 120.47 93.23 117.59 109.32 80.48 114.97"/><polygon class="cls-1" points="42.95 47.37 52.13 33.78 53 109.6 41.92 99.86 42.95 47.37"/><polygon class="cls-1" points="39.59 51.37 38.94 96.89 26.33 86.49 39.59 51.37"/><path class="cls-3" d="m55.19,30.82v81.46l70.54-40.73L55.19,30.82Zm15.14,25.24l25.56,14.76-25.73,15.06.18-29.82Z"/><polygon class="cls-1" points="72.42 82.35 72.42 59.56 92.16 70.95 72.42 82.35"/></svg>