<?xml version="1.0" encoding="UTF-8"?><svg id="Livello_1" xmlns="http://www.w3.org/2000/svg" width="151.44mm" height="37.27mm" viewBox="0 0 429.28 105.66"><defs><style>.cls-1{fill:#fca863;}.cls-2{fill:#fe8267;}.cls-3{fill:#fcab63;}</style></defs><path class="cls-2" d="m113.4,103.25V0h40.85c7.99,0,15.48,1.32,22.47,3.95,6.99,2.63,12.94,6.22,17.87,10.78,4.92,4.56,8.8,9.99,11.65,16.29,2.85,6.31,4.27,13.02,4.27,20.13,0,9.99-2.44,18.95-7.31,26.89-4.87,7.94-11.58,14.13-20.13,18.56-8.55,4.43-18.16,6.65-28.83,6.65h-40.85Zm24.26-22.43h16.59c9.4,0,16.99-2.74,22.76-8.22s8.66-12.58,8.66-21.3-2.91-15.16-8.73-20.64c-5.82-5.48-13.38-8.22-22.69-8.22h-16.59v58.38Z"/><path class="cls-2" d="m260.86,105.66c-7.6,0-14.63-1.85-21.08-5.55-6.46-3.7-11.56-8.72-15.31-15.05-3.75-6.33-5.63-13.23-5.63-20.68s1.88-14.16,5.63-20.42c3.75-6.26,8.85-11.22,15.31-14.87,6.46-3.65,13.48-5.48,21.08-5.48,5.65,0,11.06,1.08,16.22,3.25,5.16,2.17,9.61,5.07,13.33,8.7,3.73,3.63,6.7,7.96,8.92,13.01,2.21,5.04,3.32,10.31,3.32,15.82,0,7.5-1.88,14.42-5.63,20.75-3.75,6.33-8.83,11.34-15.23,15.02-6.41,3.68-13.38,5.52-20.93,5.52Zm-18.56-41.14c0,5.21,1.8,9.66,5.41,13.33,3.6,3.68,7.94,5.52,13.01,5.52s9.55-1.83,13.15-5.48c3.6-3.65,5.41-8.11,5.41-13.37s-1.83-9.4-5.48-13.01c-3.65-3.6-8.01-5.41-13.08-5.41s-9.4,1.8-13.01,5.41c-3.61,3.61-5.41,7.94-5.41,13.01Z"/><path class="cls-2" d="m321.14,90.53c0-4.24,1.49-7.84,4.46-10.81,2.97-2.97,6.58-4.46,10.81-4.46s7.73,1.49,10.63,4.46c2.9,2.97,4.35,6.58,4.35,10.81s-1.46,7.7-4.38,10.67-6.46,4.46-10.6,4.46-7.78-1.49-10.78-4.46-4.49-6.53-4.49-10.67Zm3-90.53h24.26v65.98h-24.26V0Z"/><path class="cls-2" d="m429.28,103.54c-6.04.92-11.18,1.39-15.42,1.39-5.07,0-9.5-.57-13.3-1.72s-6.93-2.74-9.39-4.79-4.46-4.64-5.99-7.78c-1.53-3.14-2.62-6.55-3.25-10.23-.63-3.68-.95-7.88-.95-12.6v-21.85h-11.84v-19.95h11.84V2.41h22.72v23.6h24.26v19.95h-24.26v19c0,3.21.15,5.81.44,7.78.29,1.97.92,3.9,1.9,5.77.97,1.88,2.51,3.25,4.6,4.13,2.09.88,4.82,1.32,8.18,1.32,2.97,0,6.45-.37,10.45-1.1v20.68Z"/><polygon class="cls-1" points="88.13 32.43 49.25 8.75 64.61 3.18 88.13 32.43"/><polygon class="cls-1" points="49.99 97.95 33.64 96.61 99.31 58.7 96.24 73.14 49.99 97.95"/><polygon class="cls-1" points="90.22 36.78 97.38 51.53 31.33 14.29 45.32 9.58 90.22 36.78"/><polygon class="cls-1" points="54.15 99.16 94.14 77.41 91.25 93.5 54.15 99.16"/><polygon class="cls-1" points="16.62 31.56 25.8 17.97 26.67 93.79 15.59 84.04 16.62 31.56"/><polygon class="cls-1" points="13.25 35.56 12.61 81.08 0 70.68 13.25 35.56"/><path class="cls-3" d="m28.85,15.01v81.46l70.54-40.73L28.85,15.01Zm15.14,25.24l25.56,14.76-25.73,15.06.18-29.82Z"/><polygon class="cls-1" points="46.08 66.54 46.08 43.74 65.83 55.14 46.08 66.54"/></svg>