<?xml version="1.0" encoding="UTF-8"?>
<svg id="Livello_1" data-name="Livello 1" xmlns="http://www.w3.org/2000/svg" viewBox="0 0 99.39 95.98">
  <defs>
    <style>
      .cls-1 {
        fill: #fca863;
      }

      .cls-2 {
        fill: #fcab63;
      }
    </style>
  </defs>
  <polygon class="cls-1" points="88.13 29.26 49.25 5.58 64.61 0 88.13 29.26"/>
  <polygon class="cls-1" points="49.99 94.78 33.64 93.44 99.31 55.52 96.24 69.96 49.99 94.78"/>
  <polygon class="cls-1" points="90.22 33.6 97.38 48.36 31.33 11.11 45.32 6.41 90.22 33.6"/>
  <polygon class="cls-1" points="54.15 95.98 94.14 74.24 91.25 90.33 54.15 95.98"/>
  <polygon class="cls-1" points="16.62 28.38 25.8 14.79 26.67 90.61 15.59 80.87 16.62 28.38"/>
  <polygon class="cls-1" points="13.25 32.38 12.61 77.9 0 67.5 13.25 32.38"/>
  <path class="cls-2" d="m28.85,11.83v81.46l70.54-40.73L28.85,11.83Zm15.14,25.24l25.56,14.76-25.73,15.06.18-29.82Z"/>
  <polygon class="cls-1" points="46.08 63.36 46.08 40.57 65.83 51.96 46.08 63.36"/>
</svg>